<?xml version="1.0" standalone="no"?>
<!DOCTYPE svg PUBLIC "-//W3C//DTD SVG 20010904//EN"
 "http://www.w3.org/TR/2001/REC-SVG-20010904/DTD/svg10.dtd">
<svg version="1.0" xmlns="http://www.w3.org/2000/svg"
 width="3264.000000pt" height="3264.000000pt" viewBox="0 0 3264.000000 3264.000000"
 preserveAspectRatio="xMidYMid meet">
<metadata>
Created by potrace 1.16, written by Peter Selinger 2001-2019
</metadata>
<g transform="translate(0.000000,3264.000000) scale(0.100000,-0.100000)"
fill="#000000" stroke="none">
<path d="M14702 25228 c-5 -7 -25 -47 -44 -89 -96 -207 -230 -345 -483 -496
-534 -319 -1032 -664 -1229 -852 -202 -194 -313 -404 -381 -719 -16 -74 -22
-86 -59 -118 -23 -20 -108 -102 -191 -183 -102 -100 -150 -141 -152 -130 -2 9
9 49 25 90 102 256 133 490 113 846 -17 293 -75 778 -101 841 -10 24 -41 29
-58 10 -6 -7 -18 -89 -27 -183 -31 -322 -76 -593 -132 -785 -28 -98 -132 -340
-293 -685 -285 -609 -335 -793 -284 -1044 l16 -80 -30 -53 c-41 -71 -169 -233
-185 -233 -14 0 -14 -7 15 190 20 142 22 184 22 773 1 648 1 654 -39 638 -41
-16 -201 -470 -289 -821 -51 -202 -81 -362 -115 -600 -41 -286 -52 -450 -52
-790 0 -309 14 -516 36 -551 12 -19 10 -35 -13 -124 -15 -57 -32 -105 -38
-107 -8 -3 -14 28 -18 89 -27 355 -94 605 -241 898 -72 144 -215 361 -332 505
-121 149 -159 154 -135 16 31 -170 62 -414 77 -596 8 -110 23 -283 31 -385 53
-653 170 -1028 435 -1397 l59 -81 0 -281 c0 -154 5 -349 11 -433 77 -1102 465
-2141 1126 -3021 167 -222 301 -376 507 -582 348 -347 640 -581 1026 -823 756
-472 1547 -743 2455 -839 211 -22 875 -25 1075 -5 342 35 670 95 955 172 198
54 527 163 563 186 26 17 28 36 7 54 -13 11 -54 0 -243 -63 -832 -278 -1675
-359 -2562 -246 -448 57 -1036 222 -1471 412 -872 382 -1621 969 -2228 1747
-297 381 -599 922 -781 1399 -183 481 -296 965 -346 1491 -19 202 -24 722 -9
947 9 128 12 144 33 165 13 13 46 58 73 101 59 93 174 210 499 508 339 311
471 454 603 654 119 181 200 377 233 565 22 127 16 355 -10 395 -26 40 -47 28
-89 -55 -134 -264 -214 -365 -601 -760 -324 -330 -437 -465 -543 -652 -50 -88
-73 -116 -73 -88 0 24 86 338 127 465 80 245 196 530 304 747 48 95 67 124
102 149 65 48 324 170 517 243 406 155 542 218 718 333 196 127 320 232 595
502 163 161 184 188 163 217 -13 17 -19 16 -142 -15 -486 -125 -989 -375
-1437 -714 -70 -53 -132 -97 -138 -97 -15 0 6 34 80 129 37 47 102 138 146
201 92 133 195 258 315 384 96 101 137 124 347 195 243 82 270 84 933 86 546
1 595 3 730 23 388 59 650 172 920 400 107 89 173 164 168 188 -2 9 -10 22
-20 27 -13 9 -32 0 -93 -42 -87 -61 -200 -112 -312 -143 -74 -20 -110 -22
-673 -29 -699 -8 -1058 -34 -1260 -89 -92 -25 -80 -5 53 93 654 485 1419 826
2213 987 189 38 536 86 724 99 187 14 618 14 791 1 759 -59 1465 -254 2122
-587 781 -396 1451 -958 1976 -1658 522 -698 894 -1559 1035 -2400 68 -409
101 -956 77 -1295 -58 -810 -253 -1524 -612 -2231 -49 -96 -89 -178 -89 -181
0 -4 7 -14 16 -22 27 -27 49 -3 118 128 327 614 528 1285 623 2071 26 214 26
921 0 1135 -94 776 -249 1319 -557 1945 -120 244 -207 396 -357 624 -223 339
-414 572 -713 872 -290 291 -497 465 -817 687 -776 539 -1678 869 -2658 973
-294 32 -823 31 -1120 0 -387 -41 -707 -104 -1065 -211 -297 -88 -480 -157
-770 -292 -303 -141 -541 -277 -833 -476 -93 -63 -171 -111 -175 -107 -9 9 79
88 193 174 94 71 228 156 427 272 614 358 914 632 1101 1005 52 104 110 271
134 390 14 68 15 85 4 98 -16 19 -35 21 -49 4z m-132 -403 c0 -19 -71 -153
-122 -228 -191 -284 -422 -473 -973 -800 -390 -231 -506 -315 -678 -490 -59
-60 -110 -107 -113 -104 -11 11 28 123 76 222 90 183 205 304 510 534 224 170
496 351 784 523 255 153 358 224 450 310 55 51 66 56 66 33z m-2370 -906 c21
-171 31 -335 30 -514 0 -291 -21 -416 -105 -630 -89 -230 -175 -380 -353 -618
-71 -95 -161 -218 -201 -275 -40 -57 -78 -101 -84 -99 -28 9 -32 147 -6 267
28 134 118 361 270 681 174 368 280 613 308 714 20 71 79 348 86 405 12 103
26 163 37 152 5 -5 14 -43 18 -83z m2695 -759 c-46 -51 -259 -154 -410 -199
-278 -81 -405 -93 -1065 -95 -523 -2 -562 -3 -670 -24 -63 -12 -154 -32 -202
-46 -49 -13 -90 -20 -94 -15 -12 20 135 133 246 189 151 76 322 115 630 144
281 27 573 37 997 35 337 -2 419 1 473 13 36 9 76 16 89 17 23 1 24 0 6 -19z
m-3723 -951 c0 -266 -3 -465 -11 -534 -33 -306 -102 -610 -222 -972 -70 -211
-90 -255 -106 -240 -13 14 -9 657 5 797 42 411 123 816 235 1175 56 177 74
222 87 209 6 -6 11 -171 12 -435z m1988 297 c0 -18 -272 -282 -390 -378 -239
-193 -482 -326 -790 -433 -149 -51 -346 -131 -455 -184 -84 -41 -101 -46 -104
-32 -7 32 320 316 551 477 301 210 654 388 1023 515 152 53 165 56 165 35z
m-2967 -1223 c361 -502 487 -976 448 -1688 -23 -430 -23 -425 -36 -425 -19 0
-127 172 -181 286 -130 281 -199 597 -239 1094 -35 429 -46 559 -60 659 -26
182 -17 191 68 74z m1883 -41 c-11 -134 -59 -300 -125 -437 -132 -274 -271
-444 -636 -778 -115 -105 -278 -259 -362 -341 -111 -109 -154 -145 -158 -134
-17 44 83 328 166 472 102 179 191 285 507 610 281 288 430 460 528 608 38 58
69 96 76 92 7 -5 8 -35 4 -92z"/>
<path d="M21395 23307 c-199 -67 -315 -231 -315 -447 0 -113 26 -198 84 -277
84 -115 186 -172 320 -180 264 -17 466 181 466 456 0 196 -91 345 -259 424
-54 26 -78 31 -160 34 -62 2 -110 -2 -136 -10z m267 -86 c155 -75 249 -256
219 -424 -23 -130 -104 -242 -218 -298 -41 -20 -63 -24 -148 -24 -89 0 -106 3
-157 28 -74 36 -159 128 -189 204 -19 47 -23 77 -23 158 0 86 4 108 26 157 45
98 138 184 231 214 65 21 201 13 259 -15z"/>
<path d="M21340 22870 l0 -260 40 0 40 0 0 106 0 106 76 -4 c69 -3 79 -6 100
-31 21 -24 24 -38 24 -103 l0 -74 44 0 44 0 -5 83 c-6 86 -21 129 -53 149 -18
11 -17 14 14 44 37 36 46 69 33 131 -16 81 -88 113 -254 113 l-103 0 0 -260z
m209 181 c52 -10 71 -31 71 -78 0 -57 -46 -83 -151 -83 l-49 0 0 78 c0 43 3
82 7 85 9 9 68 8 122 -2z"/>
<path d="M15260 21604 c-143 -18 -352 -82 -492 -149 -59 -28 -78 -42 -78 -57
0 -23 -2 -23 134 7 118 26 290 18 374 -17 244 -101 435 -315 608 -681 l37 -78
-36 -87 c-20 -48 -82 -190 -137 -317 -56 -126 -139 -316 -185 -421 -46 -105
-92 -211 -103 -235 -26 -59 -217 -495 -280 -639 -27 -63 -83 -191 -125 -285
-41 -93 -130 -296 -197 -450 -67 -154 -131 -296 -143 -315 -60 -102 -180 -202
-282 -237 -41 -13 -46 -18 -43 -42 l3 -26 485 0 c478 0 485 0 485 20 0 15 -8
21 -30 23 -73 7 -131 32 -173 73 -64 64 -79 148 -43 250 10 30 48 124 84 209
36 85 93 223 128 305 34 83 66 155 71 162 12 15 127 7 184 -13 49 -17 116 -80
146 -137 l23 -42 0 -1220 0 -1220 -30 -54 c-51 -92 -127 -141 -221 -141 -22 0
-46 -5 -54 -10 -13 -9 -13 -11 0 -20 18 -11 2109 -14 2126 -2 6 4 28 79 48
167 95 419 144 649 140 657 -12 18 -22 4 -49 -64 -114 -300 -307 -493 -567
-569 -66 -19 -104 -22 -415 -26 -339 -5 -341 -5 -352 16 -8 15 -11 355 -9
1248 3 1157 4 1230 21 1268 42 94 151 168 239 163 l50 -3 54 -145 c155 -415
238 -608 346 -805 274 -497 617 -854 1011 -1052 141 -70 243 -108 392 -143
223 -53 384 -60 595 -24 182 32 405 114 405 149 0 19 -9 20 -175 21 -155 0
-186 3 -276 27 -226 59 -371 144 -555 327 -222 221 -400 493 -615 935 -55 116
-127 273 -159 350 -111 269 -153 372 -237 580 -123 303 -265 655 -374 925 -52
129 -103 255 -114 280 -11 25 -51 124 -91 220 -203 500 -442 871 -697 1084
-135 112 -295 198 -452 241 -55 16 -326 28 -400 19z m785 -1489 c30 -86 173
-466 354 -945 61 -162 109 -300 106 -307 -3 -11 -111 -13 -537 -11 l-533 3 1
30 c1 17 62 174 136 350 75 176 193 457 263 625 155 371 153 367 169 349 7 -8
26 -50 41 -94z"/>
<path d="M13103 11438 c-6 -7 -92 -195 -193 -418 -101 -223 -252 -557 -337
-744 -84 -186 -153 -342 -153 -347 0 -5 -6 -9 -14 -9 -17 0 7 -49 -356 735
-155 336 -300 649 -323 698 -22 48 -46 87 -52 87 -7 0 -15 -23 -18 -57 -10
-99 -27 -243 -42 -368 -15 -124 -56 -466 -81 -685 -7 -69 -21 -181 -29 -250
-8 -69 -20 -165 -25 -214 -7 -55 -18 -103 -31 -126 -24 -42 -91 -90 -129 -91
-14 -1 -36 -5 -50 -9 -14 -5 80 -8 215 -9 238 0 240 0 191 17 -39 13 -53 25
-67 52 -16 32 -16 47 -4 185 8 83 21 229 29 325 70 788 69 780 81 780 5 0 102
-201 215 -447 384 -836 436 -945 445 -945 5 1 21 38 36 84 14 46 42 119 61
163 33 74 231 516 283 630 42 90 207 459 227 508 33 75 40 64 53 -83 3 -36 12
-141 21 -235 23 -256 41 -470 59 -670 8 -99 18 -199 21 -221 10 -70 -25 -116
-101 -135 -16 -4 92 -7 240 -7 259 0 273 2 168 24 -33 6 -94 63 -110 102 -13
32 -41 240 -118 900 -8 67 -22 179 -30 250 -9 70 -22 181 -30 247 -19 164 -36
289 -39 293 -2 1 -8 -3 -13 -10z"/>
<path d="M9413 11397 c-7 -24 -57 -149 -111 -278 -55 -129 -141 -333 -192
-454 -51 -121 -123 -292 -160 -380 -37 -88 -100 -238 -140 -333 -53 -124 -84
-186 -113 -218 -42 -48 -102 -84 -139 -84 -13 0 -30 -5 -38 -10 -10 -6 69 -10
233 -10 136 0 247 2 247 5 0 2 -18 9 -39 15 -52 14 -81 51 -81 104 1 27 30
115 89 266 l88 225 345 3 c269 2 348 -1 355 -10 6 -7 47 -109 92 -226 88 -232
97 -279 60 -325 -11 -15 -38 -31 -60 -37 -21 -6 -39 -13 -39 -15 0 -3 125 -5
278 -5 182 0 272 4 262 10 -8 5 -25 10 -38 10 -35 0 -95 35 -133 77 -43 48
-20 -4 -409 928 -106 253 -223 532 -259 619 -37 88 -71 161 -77 163 -5 2 -15
-16 -21 -40z m161 -658 c80 -215 146 -397 146 -405 0 -12 -48 -14 -309 -14
-171 0 -312 3 -314 8 -2 4 40 120 94 257 54 138 125 316 156 398 32 81 63 147
69 147 7 0 77 -176 158 -391z"/>
<path d="M15336 11428 c-11 -46 -44 -135 -76 -208 -21 -47 -73 -168 -115 -270
-43 -102 -119 -284 -170 -405 -51 -121 -127 -303 -170 -405 -149 -356 -156
-372 -206 -422 -31 -31 -61 -50 -90 -58 -24 -7 -55 -16 -69 -20 -14 -5 88 -8
230 -8 209 0 248 2 218 12 -21 6 -50 24 -65 39 -38 37 -36 80 10 197 20 52 56
148 81 212 25 65 50 127 56 138 10 19 20 20 355 20 330 0 345 -1 355 -19 26
-50 170 -453 170 -478 0 -49 -33 -90 -87 -106 -45 -14 -30 -15 237 -16 187 0
280 3 270 9 -8 5 -25 10 -38 10 -52 0 -145 69 -176 129 -8 14 -53 121 -101
236 -48 116 -118 282 -155 370 -86 205 -228 543 -297 710 -145 348 -157 372
-167 333z m157 -698 c81 -217 147 -398 147 -402 0 -5 -142 -8 -316 -8 -296 0
-316 1 -311 18 2 9 39 105 81 212 43 107 88 222 101 255 134 345 133 342 144
329 4 -5 74 -187 154 -404z"/>
<path d="M20537 11433 c-3 -5 -8 -22 -11 -40 -4 -17 -22 -67 -41 -110 -49
-116 -241 -571 -372 -883 -295 -701 -279 -668 -354 -715 -21 -14 -61 -30 -89
-36 -27 -6 -50 -13 -50 -15 0 -2 114 -4 253 -3 181 0 244 3 222 11 -57 18 -74
31 -90 65 -21 43 -16 74 29 185 18 46 54 139 81 208 27 69 53 131 58 138 8 9
86 12 355 10 l346 -3 34 -90 c18 -49 40 -106 47 -125 101 -258 109 -301 62
-348 -15 -15 -44 -32 -65 -38 -30 -10 15 -12 248 -13 187 0 280 3 270 9 -8 5
-26 10 -40 10 -43 0 -131 60 -162 110 -15 25 -107 234 -203 465 -97 231 -251
599 -342 818 -91 218 -170 397 -174 397 -4 0 -10 -3 -12 -7z m11 -320 c5 -10
19 -45 30 -78 12 -33 75 -204 141 -379 66 -176 118 -324 115 -328 -7 -11 -624
-10 -624 1 0 8 113 301 253 656 20 50 41 102 46 118 12 31 26 35 39 10z"/>
<path d="M23217 11433 c-2 -5 -7 -21 -11 -38 -8 -32 -102 -259 -600 -1439 -41
-98 -87 -194 -101 -212 -35 -46 -94 -82 -155 -95 -27 -6 -50 -13 -50 -15 0 -2
114 -4 253 -3 249 1 251 1 203 17 -37 13 -53 25 -67 52 -24 45 -24 57 5 138
47 132 149 387 159 400 7 9 86 12 356 10 l346 -3 83 -220 c96 -253 104 -298
59 -342 -15 -15 -44 -33 -65 -39 -30 -10 15 -12 248 -13 187 0 280 3 270 9 -8
5 -26 10 -40 10 -44 0 -131 60 -163 111 -23 39 -220 502 -634 1497 -70 168
-85 195 -96 175z m155 -703 c81 -217 145 -398 142 -402 -7 -11 -624 -10 -624
1 0 8 147 390 255 661 19 47 39 98 44 113 6 16 17 27 24 25 6 -3 78 -182 159
-398z"/>
<path d="M17324 11395 c59 -16 93 -40 124 -85 l22 -33 0 -755 0 -754 -22 -39
c-27 -48 -56 -68 -122 -84 -44 -11 -15 -13 224 -13 197 0 265 3 240 10 -67 19
-98 37 -127 74 l-28 37 0 791 0 791 174 3 c141 2 184 -1 225 -14 137 -45 210
-146 237 -327 10 -72 10 -101 -1 -155 -42 -215 -184 -317 -447 -323 -46 -1
-83 -4 -83 -6 0 -2 15 -10 33 -18 91 -38 142 -97 378 -440 183 -264 260 -340
404 -395 47 -18 88 -24 189 -28 85 -3 127 -1 123 5 -4 6 -27 13 -52 15 -145
17 -278 147 -565 551 -46 65 -112 145 -147 178 -71 66 -71 67 22 83 62 12 132
55 191 119 84 90 128 193 140 320 21 243 -110 431 -342 491 -52 13 -125 16
-450 15 -346 -1 -384 -2 -340 -14z"/>
<path d="M24180 11305 l0 -35 65 0 65 0 0 -205 0 -205 40 0 40 0 0 205 0 205
65 0 65 0 0 35 0 35 -170 0 -170 0 0 -35z"/>
<path d="M24600 11100 l0 -240 35 0 35 0 0 172 c0 104 4 168 9 163 5 -6 35
-83 67 -172 51 -146 59 -163 79 -163 16 0 26 9 33 28 5 15 31 88 57 162 26 74
51 139 56 144 5 6 9 -58 9 -162 l0 -172 35 0 35 0 0 241 0 240 -47 -3 -48 -3
-60 -167 c-33 -91 -63 -169 -67 -173 -6 -7 -18 21 -89 222 l-44 123 -47 0 -48
0 0 -240z"/>
<path d="M11450 8812 l40 -39 0 -527 c0 -450 -2 -531 -15 -556 -16 -30 -39
-47 -84 -61 -14 -4 135 -8 331 -8 331 -1 358 0 367 17 12 24 81 222 76 222 -2
0 -14 -17 -27 -37 -42 -70 -88 -111 -144 -133 -47 -17 -78 -20 -224 -20 l-170
0 0 540 c0 589 -1 575 57 619 l28 20 -138 1 -138 0 41 -38z"/>
<path d="M12992 8821 l33 -29 5 -424 c6 -464 8 -476 70 -570 87 -131 228 -198
415 -198 222 0 371 96 446 285 23 59 23 68 29 483 l5 424 33 29 32 29 -106 0
-106 0 31 -29 32 -30 -3 -433 -3 -433 -33 -67 c-41 -83 -120 -158 -200 -189
-44 -18 -78 -23 -152 -23 -84 -1 -102 3 -157 28 -74 34 -154 113 -184 183 -42
98 -49 174 -49 543 0 215 4 360 10 377 6 15 23 38 38 50 l27 23 -123 0 -122 0
32 -29z"/>
<path d="M16742 8821 l33 -29 5 -429 c6 -462 5 -456 63 -555 51 -87 158 -164
272 -194 65 -18 226 -18 290 0 185 51 301 182 325 367 5 40 10 235 10 431 0
233 4 365 11 381 6 13 23 31 37 40 26 16 24 16 -82 17 l-110 0 32 -31 32 -31
0 -407 c0 -441 -2 -465 -57 -558 -35 -61 -115 -128 -181 -154 -44 -18 -78 -23
-152 -23 -86 -1 -101 2 -161 30 -115 55 -181 141 -211 278 -15 69 -18 134 -18
444 0 244 4 371 11 385 6 12 23 32 37 44 l27 23 -123 0 -122 0 32 -29z"/>
<path d="M18730 8824 c61 -52 60 -45 60 -589 0 -526 -1 -537 -48 -578 -11 -10
-33 -22 -48 -27 -19 -5 33 -8 146 -8 118 0 165 3 145 9 -17 4 -44 22 -60 39
l-30 31 -3 549 -2 549 25 7 c54 13 238 -1 286 -23 80 -36 127 -119 136 -237 6
-85 -6 -136 -48 -199 -40 -61 -109 -95 -226 -112 -48 -7 -80 -13 -70 -14 31
-2 102 -78 188 -202 199 -286 240 -330 347 -373 27 -10 83 -20 132 -23 l85 -4
-52 19 c-108 39 -167 96 -325 314 -54 75 -119 157 -145 182 -25 25 -44 47 -42
49 2 2 31 11 63 21 71 22 148 93 186 171 32 68 40 201 16 273 -23 67 -84 135
-154 169 l-57 28 -269 3 -269 3 33 -27z"/>
<path d="M20291 8830 c66 -35 94 -74 270 -365 l174 -290 3 -195 c2 -107 1
-214 -3 -238 -8 -51 -40 -92 -86 -108 -29 -11 -9 -12 141 -12 118 0 165 3 145
9 -17 4 -44 22 -60 39 l-30 31 -3 232 -3 232 171 280 c94 154 183 295 196 313
14 18 49 46 77 62 l52 30 -144 0 -145 0 27 -28 c16 -17 27 -39 27 -56 0 -34
-278 -528 -294 -523 -19 6 -275 490 -275 521 -1 19 9 40 26 58 l27 28 -165 0
-164 -1 36 -19z"/>
</g>
</svg>
